<svg version="1.0" xmlns="http://www.w3.org/2000/svg" viewBox="0 0 947 947" fill="currentColor">
    <g>
        <path
                d="M835.5,473.6c0-199.8-162.2-362-362-362s-362,162.2-362,362c0,199.8,162.2,362,362,362   S835.5,673.4,835.5,473.6"
                fill="currentColor"/>
        <path d="M729.5,323.6c0-58.5-47.5-106-106-106s-106,47.5-106,106c0,58.5,47.5,106,106,106S729.5,382.1,729.5,323.6"
              fill="#FFFFFF"/>
        <path d="M941.5,111.5c0-58.5-47.5-106-106-106s-106,47.5-106,106c0,58.5,47.5,106,106,106S941.5,170.1,941.5,111.5"
              fill="currentColor"/>
    </g>
</svg>